<svg xmlns="http://www.w3.org/2000/svg" version="1.1" xmlns:xlink="http://www.w3.org/1999/xlink" xmlns:svgjs="http://svgjs.dev/svgjs" width="1000" height="623" viewBox="0 0 1000 623"><g transform="matrix(1,0,0,1,-0.6060606060606233,0.2522267206477409)"><svg viewBox="0 0 396 247" data-background-color="#ffffff" preserveAspectRatio="xMidYMid meet" height="623" width="1000" xmlns="http://www.w3.org/2000/svg" xmlns:xlink="http://www.w3.org/1999/xlink"><g id="tight-bounds" transform="matrix(1,0,0,1,0.2400000000000091,-0.09999999999999432)"><svg viewBox="0 0 395.52 247.2" height="247.2" width="395.52"><g><svg></svg></g><g><svg viewBox="0 0 395.52 247.2" height="247.2" width="395.52"><mask id="faef8a50-56b2-44eb-9b6c-f3648d1e7957"><rect width="395.52" height="247.2" fill="white"></rect><g transform="matrix(1,0,0,1,0,67.19930568948891)" id="clone"><svg viewBox="0 0 395.52 112.80138862102217" height="112.80138862102217" width="395.52"><g><svg viewBox="0 0 395.52 112.80138862102217" height="112.80138862102217" width="395.52"><g><svg viewBox="0 0 395.52 112.80138862102217" height="112.80138862102217" width="395.52"><g><svg viewBox="0 0 395.52 112.80138862102217" height="112.80138862102217" width="395.52"><g id="SvgjsG1138"><svg viewBox="0 0 395.52 112.80138862102217" height="112.80138862102217" width="395.52" id="SvgjsSvg1137"><g><svg viewBox="0 0 395.52 112.80138862102217" height="112.80138862102217" width="395.52"><g transform="matrix(1,0,0,1,0,0)"><svg width="395.52" viewBox="-0.5 -40 208.3800048828125 60.150001525878906" height="112.80138862102217" data-palette-color="#374151"><path d="M7.8-31.65Q7.85-31.6 6.55-32.75L6.55-32.75Q5.65-33.55 5.2-33.9L5.2-33.9Q5.4-35.25 6.2-35.8 7-36.35 8.3-36.65L8.3-36.65Q9.65-37 11.2-37L11.2-37Q12.7-37 14.25-36.7L14.25-36.7Q18.7-35.9 22.1-34.85 25.5-33.8 28.45-31.9L28.45-31.9Q30.5-30.65 31.9-28.95L31.9-28.95Q33.95-26.3 33.95-23.55L33.95-23.55Q33.95-21.2 32.4-18.7L32.4-18.7Q26.5-9.35 20.25-3.95L20.25-3.95Q16.45-0.6 11.85 1.55L11.85 1.55Q10.15 2.4 8.3 2.4L8.3 2.4Q6.1 2.4 4.05 1.15L4.05 1.15Q3.3 0.65 2.9 0.13 2.5-0.4 2.5-1.1L2.5-1.1 2.55-1.55 2.9-4.15Q3.5-8.75 4-11L4-11 4.25-12.1Q5.75-18.6 6.5-22.58 7.25-26.55 7.6-30.75L7.6-30.75 7.8-31.65ZM14.4-32.25Q13.8-32.3 12.8-32.15L12.8-32.15 11.7-32Q12.9-31 13.45-30.25 14-29.5 14-28.65L14-28.65Q14-28.45 13.9-27.95L13.9-27.95Q13.25-25.05 12.15-20.8L12.15-20.8 10.35-13.6Q9.15-8.7 8.25-4.5L8.25-4.5Q8.1-3.95 8.08-3.28 8.05-2.6 8.05-2.3L8.05-2.3Q8.5-2.1 8.55-2.1L8.55-2.1 9.2-2.35Q16.7-6 22-12.55L22-12.55Q24.15-15.3 25.63-17.75 27.1-20.2 27.85-22.9L27.85-22.9Q28.05-23.55 28.05-24.45L28.05-24.45Q28.05-26 27.28-27.25 26.5-28.5 25.15-29.15L25.15-29.15Q20.15-31.4 14.4-32.25L14.4-32.25ZM49.9-3.35Q48.35-2.4 46.35-2.4L46.35-2.4Q44.15-2.4 42.12-3.53 40.1-4.65 38.9-6.75 37.7-8.85 37.9-11.55L37.9-11.55 38.15-12.75Q38.45-14.55 38.65-15.4L38.65-15.4Q39.1-17.25 40.45-18 41.8-18.75 44.05-19.2L44.05-19.2Q45.5-19.5 46.9-19.5L46.9-19.5Q51.3-19.5 54.3-16.55L54.3-16.55Q55.9-14.95 55.9-12.65L55.9-12.65Q55.9-10.4 54.25-7.8L54.25-7.8Q52.35-4.85 49.9-3.35L49.9-3.35ZM45.7-16.95Q44.9-15 44-12.1L44-12.1 43.5-10.6 43.85-10.45Q43.85-10.1 43.87-9.38 43.9-8.65 44.05-8.15L44.05-8.15Q44.6-6.6 45.3-6.25L45.3-6.25Q45.6-6.1 46.17-6.4 46.75-6.7 47.2-7.1L47.2-7.1Q47.9-7.7 49.45-9.6L49.45-9.6Q50.6-10.9 50.6-12.7L50.6-12.7Q50.6-14.25 49.72-15.5 48.85-16.75 47.3-17.2L47.3-17.2Q47.15-17.25 46.75-17.25L46.75-17.25Q45.8-17.25 45.7-16.95L45.7-16.95ZM61.85 1.1Q57.65 1.1 56.5-2.5L56.5-2.5Q56.9-2.5 57.57-2.48 58.25-2.45 58.7-2.35L58.7-2.35Q59.4-2.25 59.7-2.25L59.7-2.25Q61.95-2.25 63.45-4.25L63.45-4.25Q64.5-5.7 64.5-7.2L64.5-7.2Q64.5-8.2 64-9.15L64-9.15Q62.9-11.1 61.3-13.45L61.3-13.45Q60.25-15 59.4-16.4L59.4-16.4Q58.4-18 58.4-19.95L58.4-19.95Q58.4-21.75 59.42-23.13 60.45-24.5 62.45-24.85L62.45-24.85 64.05-25.15Q66.65-25.65 67.95-25.65L67.95-25.65Q70.09-25.65 71.75-24.65L71.75-24.65Q72.09-24.4 72.47-23.78 72.84-23.15 73.05-22.8L73.05-22.8Q72.7-22.65 72.07-22.33 71.45-22 71-21.95L71-21.95Q70.3-21.85 68.9-21.85L68.9-21.85Q67.55-21.85 66.84-21.8L66.84-21.8Q65.25-21.65 64.32-20.73 63.4-19.8 63.4-18.5L63.4-18.5Q63.4-17.5 64-16.45L64-16.45Q65.34-14.2 67.75-11.3L67.75-11.3Q69.55-9.05 69.55-6.65L69.55-6.65Q69.55-5.35 68.95-3.9L68.95-3.9Q66.9 1.1 61.85 1.1L61.85 1.1ZM80.24-26.7Q80.29-21.85 80.52-18.73 80.74-15.6 81.59-12.1L81.59-12.1Q83.69-12.85 85.44-12.85L85.44-12.85Q88.39-12.85 90.54-11.1 92.69-9.35 93.44-6.75L93.44-6.75Q94.04-4.85 94.04-1.65L94.04-1.65 93.99 2.25Q93.99 2.6 93.59 3.05 93.19 3.5 92.79 3.6L92.79 3.6Q92.64 3.65 92.34 3.65L92.34 3.65Q91.19 3.65 89.94 2.53 88.69 1.4 88.64 0.3L88.64 0.3 88.54-2.3Q88.54-3.2 88.44-4.9L88.44-4.9Q88.34-6.65 88.04-7.4L88.04-7.4Q87.74-8.25 87.29-8.7 86.84-9.15 86.29-9.15L86.29-9.15Q85.89-9.15 85.42-8.8 84.94-8.45 84.59-7.85L84.59-7.85Q83.54-6.2 81.84-1.35L81.84-1.35Q81.29 0.4 79.89 0.4L79.89 0.4Q79.74 0.4 79.24 0.3L79.24 0.3Q78.94 0.2 78.09-0.03 77.24-0.25 76.77-0.75 76.29-1.25 76.29-2.2L76.29-2.2Q76.29-11.65 75.14-17.85L75.14-17.85Q74.59-20.95 74.59-25L74.59-25 74.59-28.35 74.59-30.1Q74.59-30.8 75.34-31.3 76.09-31.8 77.04-31.8L77.04-31.8Q77.84-31.8 78.39-31.45L78.39-31.45Q79.39-30.85 79.82-29.95 80.24-29.05 80.24-27.7L80.24-27.7 80.24-26.7ZM114.24-2.55Q113.79-2.75 113.34-2.75L113.34-2.75Q112.89-2.75 112.57-2.53 112.24-2.3 111.84-1.85L111.84-1.85Q111.24-1.25 110.59-0.85L110.59-0.85Q109.99-0.5 108.39-0.2L108.39-0.2Q107.69-0.1 107.24-0.1L107.24-0.1Q105.14-0.1 102.87-1.03 100.59-1.95 99.64-3.25L99.64-3.25Q98.64-4.65 98.69-6.25L98.69-6.25Q98.74-8.65 100.69-11.05L100.69-11.05Q102.59-13.35 104.17-14.3 105.74-15.25 108.49-15.5L108.49-15.5Q109.09-15.5 110.22-15.7 111.34-15.9 111.34-16.25L111.34-16.25Q111.34-16.95 110.72-17.53 110.09-18.1 108.19-18.1L108.19-18.1Q107.49-18.1 106.09-18L106.09-18Q104.69-17.9 104.14-17.9L104.14-17.9Q102.44-17.9 101.69-18.45L101.69-18.45Q101.49-18.55 101.49-19.4L101.49-19.4Q101.49-20.9 102.54-21.3L102.54-21.3Q104.69-22.1 106.99-22.15L106.99-22.15Q109.89-22.15 112.37-20.88 114.84-19.6 115.99-17.7L115.99-17.7Q117.14-15.8 117.49-12.45L117.49-12.45Q117.89-8.7 117.89-2.9L117.89-2.9Q117.89-1.3 117.44-1.05L117.44-1.05Q117.04-0.8 116.69-0.8L116.69-0.8Q116.24-0.8 115.87-1.07 115.49-1.35 115.04-1.85L115.04-1.85Q114.59-2.4 114.24-2.55L114.24-2.55ZM106.34-3.15Q108.69-3.85 110.94-5.4L110.94-5.4Q111.44-5.75 111.84-6.3 112.24-6.85 112.34-7L112.34-7Q112.44-7.15 112.52-7.88 112.59-8.6 112.54-9.05L112.54-9.05Q112.49-9.2 112.37-9.85 112.24-10.5 111.99-11L111.99-11Q111.74-11.4 111.19-11.75 110.64-12.1 110.19-12.05L110.19-12.05Q109.24-12 108.14-11.35 107.04-10.7 106.09-9.6L106.09-9.6Q105.14-8.45 104.62-7.28 104.09-6.1 104.09-5.1L104.09-5.1Q104.19-3.75 104.84-3.3L104.84-3.3Q105.19-3.05 105.69-3.05L105.69-3.05Q106.09-3.05 106.34-3.15L106.34-3.15ZM141.84-5.1Q140.34-3.4 138.79-2.43 137.24-1.45 135.34-1.45L135.34-1.45Q134.94-1.45 134.24-1.55L134.24-1.55 133.24-1.5Q126.94-1.45 124.04-7.5L124.04-7.5Q123.39-8.9 123.39-10.85L123.39-10.85Q123.39-12.55 123.89-14.1 124.39-15.65 125.29-16.65L125.29-16.65 126.24-17.8Q126.94-18.7 127.34-19.05L127.34-19.05Q129.09-20.75 131.99-20.75L131.99-20.75Q133.49-20.75 134.94-20.25 136.39-19.75 137.49-18.9L137.49-18.9Q137.69-18.75 137.89-18.28 138.09-17.8 138.09-17.5L138.09-17.5Q138.09-17.1 137.49-16.63 136.89-16.15 136.39-16.2L136.39-16.2Q132.99-16.6 130.94-14.58 128.89-12.55 128.89-9.05L128.89-9.05Q128.89-6.75 129.86-5.8 130.84-4.85 133.09-4.85L133.09-4.85Q134.49-4.85 135.74-5.43 136.99-6 138.64-7.05L138.64-7.05 139.59-7.65Q140.09-7.9 140.91-7.98 141.74-8.05 142.19-8.1L142.19-8.1Q142.14-7.65 142.16-7.23 142.19-6.8 142.19-6.55L142.19-6.55Q142.19-5.45 141.84-5.1L141.84-5.1ZM157.63-3.35Q156.09-2.4 154.09-2.4L154.09-2.4Q151.88-2.4 149.86-3.53 147.84-4.65 146.63-6.75 145.44-8.85 145.63-11.55L145.63-11.55 145.88-12.75Q146.19-14.55 146.38-15.4L146.38-15.4Q146.84-17.25 148.19-18 149.53-18.75 151.78-19.2L151.78-19.2Q153.24-19.5 154.63-19.5L154.63-19.5Q159.03-19.5 162.03-16.55L162.03-16.55Q163.63-14.95 163.63-12.65L163.63-12.65Q163.63-10.4 161.99-7.8L161.99-7.8Q160.09-4.85 157.63-3.35L157.63-3.35ZM153.44-16.95Q152.63-15 151.74-12.1L151.74-12.1 151.24-10.6 151.59-10.45Q151.59-10.1 151.61-9.38 151.63-8.65 151.78-8.15L151.78-8.15Q152.34-6.6 153.03-6.25L153.03-6.25Q153.34-6.1 153.91-6.4 154.49-6.7 154.94-7.1L154.94-7.1Q155.63-7.7 157.19-9.6L157.19-9.6Q158.34-10.9 158.34-12.7L158.34-12.7Q158.34-14.25 157.46-15.5 156.59-16.75 155.03-17.2L155.03-17.2Q154.88-17.25 154.49-17.25L154.49-17.25Q153.53-17.25 153.44-16.95L153.44-16.95ZM174.13-21.2Q174.28-20.7 174.18-19.65L174.18-19.65 173.58-13.75Q173.83-13.95 174.33-15.18 174.83-16.4 175.28-17.18 175.73-17.95 175.98-18.2L175.98-18.2Q178.33-20.45 181.28-20.9 184.23-21.35 187.78-21.3L187.78-21.3Q188.13-21.3 188.56-21.03 188.98-20.75 188.98-20.58 188.98-20.4 188.68-20.03 188.38-19.65 188.13-19.55L188.13-19.55Q185.13-18.55 182.86-17.25 180.58-15.95 178.93-13.85L178.93-13.85Q175.03-8.9 174.43-3.65L174.43-3.65Q174.28-2.25 173.58-1.78 172.88-1.3 171.63-1.3L171.63-1.3Q170.23-1.3 169.13-2.5 168.03-3.7 168.03-5.15L168.03-5.15Q168.08-10.45 168.08-21.05L168.08-21.05Q168.08-22.5 168.73-23.08 169.38-23.65 171.08-23.65L171.08-23.65Q172.33-23.65 173.21-22.95 174.08-22.25 174.13-21.2L174.13-21.2ZM200.33-4Q198.83-2.4 197.08-2.4L197.08-2.4Q195.63-2.4 194.03-3.35L194.03-3.35 193.88 1.2Q193.63 6.2 193.63 9.9L193.63 9.9Q193.63 10.6 193.73 12.1L193.73 12.1Q193.83 13.6 193.83 14.3L193.83 14.3Q193.83 15.05 193.78 15.4L193.78 15.4Q193.73 15.85 193.18 16.38 192.63 16.9 192.08 17.05L192.08 17.05Q191.68 17.15 191.53 17.15L191.53 17.15Q190.38 17.15 189.31 16.15 188.23 15.15 188.28 14.05L188.28 14.05Q188.38 10.3 188.68 3.2L188.68 3.2 189.03-7.7Q189.13-10.7 188.68-12.75L188.68-12.75Q188.58-13.35 188.58-13.55L188.58-13.55Q188.58-14.35 189.06-14.8 189.53-15.25 190.33-15.35L190.33-15.35Q191.58-15.45 192.33-16.03 193.08-16.6 194.08-17.85L194.08-17.85Q195.88-20.1 198.03-20.1L198.03-20.1Q200.43-20.1 203.48-17.15L203.48-17.15Q204.88-15.8 204.88-13.5L204.88-13.5Q204.88-12.65 204.73-11.8L204.73-11.8Q204.38-9.7 203.25-7.9 202.13-6.1 200.33-4L200.33-4ZM195.68-12.35Q194.58-9.35 194.58-7L194.58-7Q194.58-6.45 194.63-6.2L194.63-6.2 195.23-5.9Q196.23-6.2 197.33-7.65 198.43-9.1 199.16-10.93 199.88-12.75 199.88-14.15L199.88-14.15Q199.88-14.75 199.63-15.35L199.63-15.35Q199.28-16 198.58-16L198.58-16Q197.68-16 197.28-15.35L197.28-15.35Q197.13-15.15 196.58-14.25 196.03-13.35 195.68-12.35L195.68-12.35Z" opacity="1" transform="matrix(1,0,0,1,0,0)" fill="black" class="wordmark-text-0" id="SvgjsPath1136" stroke-width="5" stroke="black" stroke-linejoin="round"></path></svg></g></svg></g></svg></g></svg></g></svg></g></svg></g></svg></g></mask><g mask="url(#faef8a50-56b2-44eb-9b6c-f3648d1e7957)"><g><path xmlns="http://www.w3.org/2000/svg" d="M132.352 33.566c0.209 0.209-2.405-2.091-7.842-6.901v0c-3.764-3.346-6.588-5.751-8.47-7.215v0c0.837-5.647 2.928-9.62 6.274-11.921 3.346-2.301 7.738-4.078 13.175-5.333v0c5.647-1.464 11.712-2.196 18.195-2.196v0c6.274 0 12.653 0.627 19.136 1.882v0c18.613 3.346 35.03 7.215 49.252 11.607 14.221 4.392 27.502 10.561 39.841 18.509v0c8.575 5.228 15.79 11.398 21.645 18.509v0c8.575 11.084 12.862 22.378 12.862 33.88v0c0 9.829-3.242 19.973-9.724 30.429v0c-24.678 39.109-50.088 69.956-76.231 92.543v0c-15.894 14.012-33.462 25.515-52.702 34.508v0c-7.111 3.555-14.535 5.333-22.274 5.333v0c-9.202 0-18.09-2.614-26.665-7.843v0c-3.137-2.091-5.542-4.225-7.215-6.399-1.673-2.217-2.51-4.789-2.509-7.717v0l0.313-2.824 2.196-16.312c2.51-19.241 4.81-33.566 6.902-42.978v0l1.568-6.902c6.274-27.188 10.98-49.105 14.117-65.752 3.137-16.605 5.438-33.692 6.902-51.26v0zM173.762 29.802c-2.51-0.209-5.856 0-10.039 0.627v0l-6.902 0.942c5.019 4.183 8.679 7.843 10.98 10.979 2.301 3.137 3.451 6.483 3.451 10.039v0c0 0.837-0.209 2.301-0.628 4.392v0c-2.719 12.13-6.379 27.083-10.979 44.86v0l-11.294 45.173c-5.019 20.495-9.411 39.527-13.175 57.095v0c-0.627 2.301-0.983 4.852-1.067 7.654-0.125 2.844-0.188 4.894-0.188 6.149v0c1.882 0.837 2.928 1.255 3.137 1.255v0l4.078-1.569c31.371-15.267 58.14-36.599 80.309-63.996v0c8.993-11.503 16.585-22.378 22.775-32.625 6.149-10.248 10.791-21.018 13.928-32.312v0c0.837-2.719 1.255-5.96 1.255-9.725v0c0-6.483-1.61-12.339-4.831-17.567-3.263-5.228-7.717-9.202-13.364-11.921v0c-20.914-9.411-43.396-15.894-67.446-19.45z" fill="#374151" fill-rule="nonzero" stroke="none" stroke-width="1" stroke-linecap="butt" stroke-linejoin="miter" stroke-miterlimit="10" stroke-dasharray="" stroke-dashoffset="0" font-family="none" font-weight="none" font-size="none" text-anchor="none" style="mix-blend-mode: normal" data-fill-palette-color="tertiary"></path></g></g><g transform="matrix(1,0,0,1,0,67.19930568948891)"><svg viewBox="0 0 395.52 112.80138862102217" height="112.80138862102217" width="395.52"><g><svg viewBox="0 0 395.52 112.80138862102217" height="112.80138862102217" width="395.52"><g><svg viewBox="0 0 395.52 112.80138862102217" height="112.80138862102217" width="395.52"><g><svg viewBox="0 0 395.52 112.80138862102217" height="112.80138862102217" width="395.52"><g id="textblocktransform"><svg viewBox="0 0 395.52 112.80138862102217" height="112.80138862102217" width="395.52" id="textblock"><g><svg viewBox="0 0 395.52 112.80138862102217" height="112.80138862102217" width="395.52"><g transform="matrix(1,0,0,1,0,0)"><svg width="395.52" viewBox="-0.5 -40 208.3800048828125 60.150001525878906" height="112.80138862102217" data-palette-color="#374151"><path d="M7.8-31.65Q7.85-31.6 6.55-32.75L6.55-32.75Q5.65-33.55 5.2-33.9L5.2-33.9Q5.4-35.25 6.2-35.8 7-36.35 8.3-36.65L8.3-36.65Q9.65-37 11.2-37L11.2-37Q12.7-37 14.25-36.7L14.25-36.7Q18.7-35.9 22.1-34.85 25.5-33.8 28.45-31.9L28.45-31.9Q30.5-30.65 31.9-28.95L31.9-28.95Q33.95-26.3 33.95-23.55L33.95-23.55Q33.95-21.2 32.4-18.7L32.4-18.7Q26.5-9.35 20.25-3.95L20.25-3.95Q16.45-0.6 11.85 1.55L11.85 1.55Q10.15 2.4 8.3 2.4L8.3 2.4Q6.1 2.4 4.05 1.15L4.05 1.15Q3.3 0.65 2.9 0.13 2.5-0.4 2.5-1.1L2.5-1.1 2.55-1.55 2.9-4.15Q3.5-8.75 4-11L4-11 4.25-12.1Q5.75-18.6 6.5-22.58 7.25-26.55 7.6-30.75L7.6-30.75 7.8-31.65ZM14.4-32.25Q13.8-32.3 12.8-32.15L12.8-32.15 11.7-32Q12.9-31 13.45-30.25 14-29.5 14-28.65L14-28.65Q14-28.45 13.9-27.95L13.9-27.95Q13.25-25.05 12.15-20.8L12.15-20.8 10.35-13.6Q9.15-8.7 8.25-4.5L8.25-4.5Q8.1-3.95 8.08-3.28 8.05-2.6 8.05-2.3L8.05-2.3Q8.5-2.1 8.55-2.1L8.55-2.1 9.2-2.35Q16.7-6 22-12.55L22-12.55Q24.15-15.3 25.63-17.75 27.1-20.2 27.85-22.9L27.85-22.9Q28.05-23.55 28.05-24.45L28.05-24.45Q28.05-26 27.28-27.25 26.5-28.5 25.15-29.15L25.15-29.15Q20.15-31.4 14.4-32.25L14.4-32.25ZM49.9-3.35Q48.35-2.4 46.35-2.4L46.35-2.4Q44.15-2.4 42.12-3.53 40.1-4.65 38.9-6.75 37.7-8.85 37.9-11.55L37.9-11.55 38.15-12.75Q38.45-14.55 38.65-15.4L38.65-15.4Q39.1-17.25 40.45-18 41.8-18.75 44.05-19.2L44.05-19.2Q45.5-19.5 46.9-19.5L46.9-19.5Q51.3-19.5 54.3-16.55L54.3-16.55Q55.9-14.95 55.9-12.65L55.9-12.65Q55.9-10.4 54.25-7.8L54.25-7.8Q52.35-4.85 49.9-3.35L49.9-3.35ZM45.7-16.95Q44.9-15 44-12.1L44-12.1 43.5-10.6 43.85-10.45Q43.85-10.1 43.87-9.38 43.9-8.65 44.05-8.15L44.05-8.15Q44.6-6.6 45.3-6.25L45.3-6.25Q45.6-6.1 46.17-6.4 46.75-6.7 47.2-7.1L47.2-7.1Q47.9-7.7 49.45-9.6L49.45-9.6Q50.6-10.9 50.6-12.7L50.6-12.7Q50.6-14.25 49.72-15.5 48.85-16.75 47.3-17.2L47.3-17.2Q47.15-17.25 46.75-17.25L46.75-17.25Q45.8-17.25 45.7-16.95L45.7-16.95ZM61.85 1.1Q57.65 1.1 56.5-2.5L56.5-2.5Q56.9-2.5 57.57-2.48 58.25-2.45 58.7-2.35L58.7-2.35Q59.4-2.25 59.7-2.25L59.7-2.25Q61.95-2.25 63.45-4.25L63.45-4.25Q64.5-5.7 64.5-7.2L64.5-7.2Q64.5-8.2 64-9.15L64-9.15Q62.9-11.1 61.3-13.45L61.3-13.45Q60.25-15 59.4-16.4L59.4-16.4Q58.4-18 58.4-19.95L58.4-19.95Q58.4-21.75 59.42-23.13 60.45-24.5 62.45-24.85L62.45-24.85 64.05-25.15Q66.65-25.65 67.95-25.65L67.95-25.65Q70.09-25.65 71.75-24.65L71.75-24.65Q72.09-24.4 72.47-23.78 72.84-23.15 73.05-22.8L73.05-22.8Q72.7-22.65 72.07-22.33 71.45-22 71-21.95L71-21.95Q70.3-21.85 68.9-21.85L68.9-21.85Q67.55-21.85 66.84-21.8L66.84-21.8Q65.25-21.65 64.32-20.73 63.4-19.8 63.4-18.5L63.4-18.5Q63.4-17.5 64-16.45L64-16.45Q65.34-14.2 67.75-11.3L67.75-11.3Q69.55-9.05 69.55-6.65L69.55-6.65Q69.55-5.35 68.95-3.9L68.95-3.9Q66.9 1.1 61.85 1.1L61.85 1.1ZM80.24-26.7Q80.29-21.85 80.52-18.73 80.74-15.6 81.59-12.1L81.59-12.1Q83.69-12.85 85.44-12.85L85.44-12.85Q88.39-12.85 90.54-11.1 92.69-9.35 93.44-6.75L93.44-6.75Q94.04-4.85 94.04-1.65L94.04-1.65 93.99 2.25Q93.99 2.6 93.59 3.05 93.19 3.5 92.79 3.6L92.79 3.6Q92.64 3.65 92.34 3.65L92.34 3.65Q91.19 3.65 89.94 2.53 88.69 1.4 88.64 0.3L88.64 0.3 88.54-2.3Q88.54-3.2 88.44-4.9L88.44-4.9Q88.34-6.65 88.04-7.4L88.04-7.4Q87.74-8.25 87.29-8.7 86.84-9.15 86.29-9.15L86.29-9.15Q85.89-9.15 85.42-8.8 84.94-8.45 84.59-7.85L84.59-7.85Q83.54-6.2 81.84-1.35L81.84-1.35Q81.29 0.4 79.89 0.4L79.89 0.4Q79.74 0.4 79.24 0.3L79.24 0.3Q78.94 0.2 78.09-0.03 77.24-0.25 76.77-0.75 76.29-1.25 76.29-2.2L76.29-2.2Q76.29-11.65 75.14-17.85L75.14-17.85Q74.59-20.95 74.59-25L74.59-25 74.59-28.35 74.59-30.1Q74.59-30.8 75.34-31.3 76.09-31.8 77.04-31.8L77.04-31.8Q77.84-31.8 78.39-31.45L78.39-31.45Q79.39-30.85 79.82-29.95 80.24-29.05 80.24-27.7L80.24-27.7 80.24-26.7ZM114.24-2.55Q113.79-2.75 113.34-2.75L113.34-2.75Q112.89-2.75 112.57-2.53 112.24-2.3 111.84-1.85L111.84-1.85Q111.24-1.25 110.59-0.85L110.59-0.85Q109.99-0.5 108.39-0.2L108.39-0.2Q107.69-0.1 107.24-0.1L107.24-0.1Q105.14-0.1 102.87-1.03 100.59-1.95 99.64-3.25L99.64-3.25Q98.64-4.65 98.69-6.25L98.69-6.25Q98.74-8.65 100.69-11.05L100.69-11.05Q102.59-13.35 104.17-14.3 105.74-15.25 108.49-15.5L108.49-15.5Q109.09-15.5 110.22-15.7 111.34-15.9 111.34-16.25L111.34-16.25Q111.34-16.95 110.72-17.53 110.09-18.1 108.19-18.1L108.19-18.1Q107.49-18.1 106.09-18L106.09-18Q104.69-17.9 104.14-17.9L104.14-17.9Q102.44-17.9 101.69-18.45L101.69-18.45Q101.49-18.55 101.49-19.4L101.49-19.4Q101.49-20.9 102.54-21.3L102.54-21.3Q104.69-22.1 106.99-22.15L106.99-22.15Q109.89-22.15 112.37-20.88 114.84-19.6 115.99-17.7L115.99-17.7Q117.14-15.8 117.49-12.45L117.49-12.45Q117.89-8.7 117.89-2.9L117.89-2.9Q117.89-1.3 117.44-1.05L117.44-1.05Q117.04-0.8 116.69-0.8L116.69-0.8Q116.24-0.8 115.87-1.07 115.49-1.35 115.04-1.85L115.04-1.85Q114.59-2.4 114.24-2.55L114.24-2.55ZM106.34-3.15Q108.69-3.85 110.94-5.4L110.94-5.4Q111.44-5.75 111.84-6.3 112.24-6.85 112.34-7L112.34-7Q112.44-7.15 112.52-7.88 112.59-8.6 112.54-9.05L112.54-9.05Q112.49-9.2 112.37-9.85 112.24-10.5 111.99-11L111.99-11Q111.74-11.4 111.19-11.75 110.64-12.1 110.19-12.05L110.19-12.05Q109.24-12 108.14-11.35 107.04-10.7 106.09-9.6L106.09-9.6Q105.14-8.45 104.62-7.28 104.09-6.1 104.09-5.1L104.09-5.1Q104.19-3.75 104.84-3.3L104.84-3.3Q105.19-3.05 105.69-3.05L105.69-3.05Q106.09-3.05 106.34-3.15L106.34-3.15ZM141.84-5.1Q140.34-3.4 138.79-2.43 137.24-1.45 135.34-1.45L135.34-1.45Q134.94-1.45 134.24-1.55L134.24-1.55 133.24-1.5Q126.94-1.45 124.04-7.5L124.04-7.5Q123.39-8.9 123.39-10.85L123.39-10.85Q123.39-12.55 123.89-14.1 124.39-15.65 125.29-16.65L125.29-16.65 126.24-17.8Q126.94-18.7 127.34-19.05L127.34-19.05Q129.09-20.75 131.99-20.75L131.99-20.75Q133.49-20.75 134.94-20.25 136.39-19.75 137.49-18.9L137.49-18.9Q137.69-18.75 137.89-18.28 138.09-17.8 138.09-17.5L138.09-17.5Q138.09-17.1 137.49-16.63 136.89-16.15 136.39-16.2L136.39-16.2Q132.99-16.6 130.94-14.58 128.89-12.55 128.89-9.05L128.89-9.05Q128.89-6.75 129.86-5.8 130.84-4.85 133.09-4.85L133.09-4.85Q134.49-4.85 135.74-5.43 136.99-6 138.64-7.05L138.64-7.05 139.59-7.65Q140.09-7.9 140.91-7.98 141.74-8.05 142.19-8.1L142.19-8.1Q142.14-7.65 142.16-7.23 142.19-6.8 142.19-6.55L142.19-6.55Q142.19-5.45 141.84-5.1L141.84-5.1ZM157.63-3.35Q156.09-2.4 154.09-2.4L154.09-2.4Q151.88-2.4 149.86-3.53 147.84-4.65 146.63-6.75 145.44-8.85 145.63-11.55L145.63-11.55 145.88-12.75Q146.19-14.55 146.38-15.4L146.38-15.4Q146.84-17.25 148.19-18 149.53-18.75 151.78-19.2L151.78-19.2Q153.24-19.5 154.63-19.5L154.63-19.5Q159.03-19.5 162.03-16.55L162.03-16.55Q163.63-14.95 163.63-12.65L163.63-12.65Q163.63-10.4 161.99-7.8L161.99-7.8Q160.09-4.85 157.63-3.35L157.63-3.35ZM153.44-16.95Q152.63-15 151.74-12.1L151.74-12.1 151.24-10.6 151.59-10.45Q151.59-10.1 151.61-9.38 151.63-8.65 151.78-8.15L151.78-8.15Q152.34-6.6 153.03-6.25L153.03-6.25Q153.34-6.1 153.91-6.4 154.49-6.7 154.94-7.1L154.94-7.1Q155.63-7.7 157.19-9.6L157.19-9.6Q158.34-10.9 158.34-12.7L158.34-12.7Q158.34-14.25 157.46-15.5 156.59-16.75 155.03-17.2L155.03-17.2Q154.88-17.25 154.49-17.25L154.49-17.25Q153.53-17.25 153.44-16.95L153.44-16.95ZM174.13-21.2Q174.28-20.7 174.18-19.65L174.18-19.65 173.58-13.75Q173.83-13.95 174.33-15.18 174.83-16.4 175.28-17.18 175.73-17.95 175.98-18.2L175.98-18.2Q178.33-20.45 181.28-20.9 184.23-21.35 187.78-21.3L187.78-21.3Q188.13-21.3 188.56-21.03 188.98-20.75 188.98-20.58 188.98-20.4 188.68-20.03 188.38-19.65 188.13-19.55L188.13-19.55Q185.13-18.55 182.86-17.25 180.58-15.95 178.93-13.85L178.93-13.85Q175.03-8.9 174.43-3.65L174.43-3.65Q174.28-2.25 173.58-1.78 172.88-1.3 171.63-1.3L171.63-1.3Q170.23-1.3 169.13-2.5 168.03-3.7 168.03-5.15L168.03-5.15Q168.08-10.45 168.08-21.05L168.08-21.05Q168.08-22.5 168.73-23.08 169.38-23.65 171.08-23.65L171.08-23.65Q172.33-23.65 173.21-22.95 174.08-22.25 174.13-21.2L174.13-21.2ZM200.33-4Q198.83-2.4 197.08-2.4L197.08-2.4Q195.63-2.4 194.03-3.35L194.03-3.35 193.88 1.2Q193.63 6.2 193.63 9.9L193.63 9.9Q193.63 10.6 193.73 12.1L193.73 12.1Q193.83 13.6 193.83 14.3L193.83 14.3Q193.83 15.05 193.78 15.4L193.78 15.4Q193.73 15.85 193.18 16.38 192.63 16.9 192.08 17.05L192.08 17.05Q191.68 17.15 191.53 17.15L191.53 17.15Q190.38 17.15 189.31 16.15 188.23 15.15 188.28 14.05L188.28 14.05Q188.38 10.3 188.68 3.2L188.68 3.2 189.03-7.7Q189.13-10.7 188.68-12.75L188.68-12.75Q188.58-13.35 188.58-13.55L188.58-13.55Q188.58-14.35 189.06-14.8 189.53-15.25 190.33-15.35L190.33-15.35Q191.58-15.45 192.33-16.03 193.08-16.6 194.08-17.85L194.08-17.85Q195.88-20.1 198.03-20.1L198.03-20.1Q200.43-20.1 203.48-17.15L203.48-17.15Q204.88-15.8 204.88-13.5L204.88-13.5Q204.88-12.65 204.73-11.8L204.73-11.8Q204.38-9.7 203.25-7.9 202.13-6.1 200.33-4L200.33-4ZM195.68-12.35Q194.58-9.35 194.58-7L194.58-7Q194.58-6.45 194.63-6.2L194.63-6.2 195.23-5.9Q196.23-6.2 197.33-7.65 198.43-9.1 199.16-10.93 199.88-12.75 199.88-14.15L199.88-14.15Q199.88-14.75 199.63-15.35L199.63-15.35Q199.28-16 198.58-16L198.58-16Q197.68-16 197.28-15.35L197.28-15.35Q197.13-15.15 196.58-14.25 196.03-13.35 195.68-12.35L195.68-12.35Z" opacity="1" transform="matrix(1,0,0,1,0,0)" fill="#374151" class="wordmark-text-0" data-fill-palette-color="primary" id="text-0"></path></svg></g></svg></g></svg></g></svg></g></svg></g></svg></g></svg></g></svg></g><defs></defs></svg><rect width="395.52" height="247.2" fill="none" stroke="none" visibility="hidden"></rect></g></svg></g></svg>